<svg xmlns="http://www.w3.org/2000/svg" viewBox="0 0 800 520" role="img" aria-labelledby="title desc">
  <title id="title">AI consciousness</title>
  <desc id="desc">A chip-like frame with a dialogue bubble and inner eye motif, suggesting architecture versus surface behavior.</desc>
  <defs>
    <linearGradient id="bg" x1="0" y1="0" x2="1" y2="1">
      <stop offset="0%" stop-color="#eef2ef"/>
      <stop offset="100%" stop-color="#efe6dc"/>
    </linearGradient>
  </defs>
  <rect width="800" height="520" rx="28" fill="url(#bg)"/>
  <rect x="210" y="110" width="380" height="260" rx="32" fill="none" stroke="#0b5a57" stroke-width="8"/>
  <g stroke="#0b5a57" stroke-width="6" stroke-linecap="round">
    <path d="M170 150h40M170 210h40M170 270h40M170 330h40"/>
    <path d="M590 150h40M590 210h40M590 270h40M590 330h40"/>
  </g>
  <path d="M332 238c32-36 104-36 136 0-32 36-104 36-136 0z" fill="none" stroke="#7a3d28" stroke-width="8"/>
  <circle cx="400" cy="238" r="30" fill="#0b5a57"/>
  <path d="M486 156h118a24 24 0 0 1 24 24v72a24 24 0 0 1-24 24h-60l-38 34v-34h-20a24 24 0 0 1-24-24v-72a24 24 0 0 1 24-24z" fill="#fbf8f2" stroke="#2b2926" stroke-width="4"/>
  <circle cx="530" cy="216" r="8" fill="#2b2926"/>
  <circle cx="568" cy="216" r="8" fill="#2b2926"/>
  <circle cx="606" cy="216" r="8" fill="#2b2926"/>
</svg>
